<?xml version="1.0" standalone="no"?>
<!DOCTYPE svg PUBLIC "-//W3C//DTD SVG 20010904//EN"
 "http://www.w3.org/TR/2001/REC-SVG-20010904/DTD/svg10.dtd">
<svg version="1.0" xmlns="http://www.w3.org/2000/svg"
 width="260.000000pt" height="275.000000pt" viewBox="0 0 260.000000 275.000000"
 preserveAspectRatio="xMidYMid meet">
<metadata>
Created by potrace 1.10, written by Peter Selinger 2001-2011
</metadata>
<g transform="translate(0.000000,275.000000) scale(0.050000,-0.050000)"
fill="#e86824" stroke="none">
<path d="M2124 5396 c-60 -60 -25 -110 247 -348 l272 -238 -11 -140 c-6 -77
-21 -271 -34 -432 l-24 -292 -285 96 c-353 119 -385 117 -550 -36 -101 -93
-227 -311 -195 -336 54 -41 2664 -889 2676 -869 66 106 61 382 -10 519 -48 93
-85 109 -784 342 l-656 219 23 344 c14 190 27 421 31 513 l6 168 -250 219
c-137 120 -289 235 -337 256 -102 46 -89 45 -119 15z m886 -1798 c561 -188
1026 -352 1034 -365 18 -28 44 -192 33 -203 -13 -13 -2266 747 -2273 767 -7
21 135 143 166 143 11 0 479 -154 1040 -342z"/>
<path d="M1563 3006 c-69 -284 -216 -879 -327 -1322 -259 -1041 -263 -1013
164 -1154 138 -45 485 -161 773 -258 l523 -175 77 39 c120 62 124 69 476 884
183 424 358 829 390 900 31 72 88 202 127 290 38 88 107 245 154 349 46 104
76 192 67 195 -576 197 -2229 753 -2257 759 -37 9 -50 -31 -167 -507z m2161
-391 c-3 -14 -39 -105 -80 -202 l-74 -178 -290 12 c-159 7 -608 14 -996 17
-699 5 -706 5 -695 45 6 23 62 244 123 491 62 248 116 456 120 463 15 24 1898
-620 1892 -648z m-679 -555 c431 0 437 -1 425 -41 -7 -22 -86 -204 -174 -405
l-161 -364 -892 7 c-491 4 -896 10 -900 14 -4 4 36 189 90 411 l97 403 538
-12 c296 -7 736 -13 977 -13z m-8 -1012 c18 -15 -265 -662 -312 -713 -46 -51
-103 -44 -362 46 -128 45 -336 117 -463 160 -712 242 -687 226 -642 428 l26
114 873 -14 c480 -8 876 -17 880 -21z"/>
</g>
</svg>
